<mxfile host="app.diagrams.net" modified="2023-09-02T16:19:57.113Z" agent="Mozilla/5.0 (X11; Linux x86_64) AppleWebKit/537.36 (KHTML, like Gecko) Chrome/116.0.0.0 Safari/537.36" etag="KcxdTCpRNIPBDIkvXpaH" version="21.7.2" type="device">
  <diagram name="Page-1" id="vl--apVO7YC4YFZeyCDp">
    <mxGraphModel dx="1139" dy="823" grid="1" gridSize="10" guides="1" tooltips="1" connect="1" arrows="1" fold="1" page="1" pageScale="1" pageWidth="827" pageHeight="1169" math="0" shadow="0">
      <root>
        <mxCell id="0" />
        <mxCell id="1" parent="0" />
        <mxCell id="jCUedZAO6M8Hi1ttoSjH-37" value="" style="rounded=0;whiteSpace=wrap;html=1;strokeWidth=2;" vertex="1" parent="1">
          <mxGeometry x="694" y="372" width="120" height="50" as="geometry" />
        </mxCell>
        <mxCell id="jCUedZAO6M8Hi1ttoSjH-4" style="edgeStyle=orthogonalEdgeStyle;rounded=0;orthogonalLoop=1;jettySize=auto;html=1;exitX=0.5;exitY=1;exitDx=0;exitDy=0;entryX=0.5;entryY=0;entryDx=0;entryDy=0;strokeWidth=2;" edge="1" parent="1" source="jCUedZAO6M8Hi1ttoSjH-1" target="jCUedZAO6M8Hi1ttoSjH-2">
          <mxGeometry relative="1" as="geometry" />
        </mxCell>
        <mxCell id="jCUedZAO6M8Hi1ttoSjH-5" style="edgeStyle=orthogonalEdgeStyle;rounded=0;orthogonalLoop=1;jettySize=auto;html=1;exitX=0.5;exitY=1;exitDx=0;exitDy=0;entryX=0.5;entryY=0;entryDx=0;entryDy=0;strokeWidth=2;" edge="1" parent="1" source="jCUedZAO6M8Hi1ttoSjH-1" target="jCUedZAO6M8Hi1ttoSjH-3">
          <mxGeometry relative="1" as="geometry" />
        </mxCell>
        <mxCell id="jCUedZAO6M8Hi1ttoSjH-1" value="" style="shape=actor;whiteSpace=wrap;html=1;strokeWidth=2;fillColor=#f5f5f5;strokeColor=#666666;fontColor=#333333;" vertex="1" parent="1">
          <mxGeometry x="370" y="20" width="86" height="110" as="geometry" />
        </mxCell>
        <mxCell id="jCUedZAO6M8Hi1ttoSjH-11" style="edgeStyle=orthogonalEdgeStyle;rounded=0;orthogonalLoop=1;jettySize=auto;html=1;exitX=0.5;exitY=1;exitDx=0;exitDy=0;entryX=0.5;entryY=0;entryDx=0;entryDy=0;strokeWidth=2;" edge="1" parent="1" source="jCUedZAO6M8Hi1ttoSjH-2" target="jCUedZAO6M8Hi1ttoSjH-8">
          <mxGeometry relative="1" as="geometry" />
        </mxCell>
        <mxCell id="jCUedZAO6M8Hi1ttoSjH-12" style="edgeStyle=orthogonalEdgeStyle;rounded=0;orthogonalLoop=1;jettySize=auto;html=1;exitX=0.5;exitY=1;exitDx=0;exitDy=0;entryX=0.5;entryY=0;entryDx=0;entryDy=0;strokeWidth=2;" edge="1" parent="1" source="jCUedZAO6M8Hi1ttoSjH-2" target="jCUedZAO6M8Hi1ttoSjH-9">
          <mxGeometry relative="1" as="geometry" />
        </mxCell>
        <mxCell id="jCUedZAO6M8Hi1ttoSjH-2" value="" style="rounded=1;whiteSpace=wrap;html=1;strokeWidth=2;" vertex="1" parent="1">
          <mxGeometry x="120" y="170" width="120" height="60" as="geometry" />
        </mxCell>
        <mxCell id="jCUedZAO6M8Hi1ttoSjH-29" style="edgeStyle=orthogonalEdgeStyle;rounded=0;orthogonalLoop=1;jettySize=auto;html=1;exitX=0.5;exitY=1;exitDx=0;exitDy=0;entryX=0.5;entryY=0;entryDx=0;entryDy=0;strokeWidth=2;" edge="1" parent="1" source="jCUedZAO6M8Hi1ttoSjH-3" target="jCUedZAO6M8Hi1ttoSjH-28">
          <mxGeometry relative="1" as="geometry" />
        </mxCell>
        <mxCell id="jCUedZAO6M8Hi1ttoSjH-3" value="" style="rounded=1;whiteSpace=wrap;html=1;strokeWidth=2;" vertex="1" parent="1">
          <mxGeometry x="580" y="170" width="120" height="60" as="geometry" />
        </mxCell>
        <mxCell id="jCUedZAO6M8Hi1ttoSjH-6" value="User" style="text;strokeColor=none;align=center;fillColor=none;html=1;verticalAlign=middle;whiteSpace=wrap;rounded=0;fontSize=25;fontStyle=1" vertex="1" parent="1">
          <mxGeometry x="150" y="185" width="60" height="30" as="geometry" />
        </mxCell>
        <mxCell id="jCUedZAO6M8Hi1ttoSjH-7" value="Admin" style="text;strokeColor=none;align=center;fillColor=none;html=1;verticalAlign=middle;whiteSpace=wrap;rounded=0;fontSize=25;fontStyle=1" vertex="1" parent="1">
          <mxGeometry x="610" y="186" width="60" height="30" as="geometry" />
        </mxCell>
        <mxCell id="jCUedZAO6M8Hi1ttoSjH-20" style="edgeStyle=orthogonalEdgeStyle;rounded=0;orthogonalLoop=1;jettySize=auto;html=1;exitX=0.5;exitY=1;exitDx=0;exitDy=0;entryX=0.5;entryY=0;entryDx=0;entryDy=0;strokeWidth=2;" edge="1" parent="1" source="jCUedZAO6M8Hi1ttoSjH-8" target="jCUedZAO6M8Hi1ttoSjH-18">
          <mxGeometry relative="1" as="geometry" />
        </mxCell>
        <mxCell id="jCUedZAO6M8Hi1ttoSjH-8" value="" style="rounded=0;whiteSpace=wrap;html=1;strokeWidth=2;" vertex="1" parent="1">
          <mxGeometry x="30" y="280" width="120" height="50" as="geometry" />
        </mxCell>
        <mxCell id="jCUedZAO6M8Hi1ttoSjH-17" style="edgeStyle=orthogonalEdgeStyle;rounded=0;orthogonalLoop=1;jettySize=auto;html=1;exitX=0.5;exitY=1;exitDx=0;exitDy=0;" edge="1" parent="1" source="jCUedZAO6M8Hi1ttoSjH-9">
          <mxGeometry relative="1" as="geometry">
            <mxPoint x="259.75" y="370" as="targetPoint" />
          </mxGeometry>
        </mxCell>
        <mxCell id="jCUedZAO6M8Hi1ttoSjH-9" value="" style="rounded=0;whiteSpace=wrap;html=1;strokeWidth=2;" vertex="1" parent="1">
          <mxGeometry x="200" y="280" width="120" height="50" as="geometry" />
        </mxCell>
        <mxCell id="jCUedZAO6M8Hi1ttoSjH-10" value="" style="rounded=0;whiteSpace=wrap;html=1;strokeWidth=2;" vertex="1" parent="1">
          <mxGeometry x="420" y="276" width="120" height="50" as="geometry" />
        </mxCell>
        <mxCell id="jCUedZAO6M8Hi1ttoSjH-13" value="Login" style="text;strokeColor=none;align=center;fillColor=none;html=1;verticalAlign=middle;whiteSpace=wrap;rounded=0;fontSize=25;strokeWidth=2;" vertex="1" parent="1">
          <mxGeometry x="60" y="290" width="60" height="30" as="geometry" />
        </mxCell>
        <mxCell id="jCUedZAO6M8Hi1ttoSjH-14" value="Signup" style="text;strokeColor=none;align=center;fillColor=none;html=1;verticalAlign=middle;whiteSpace=wrap;rounded=0;fontSize=25;strokeWidth=2;" vertex="1" parent="1">
          <mxGeometry x="230" y="290" width="60" height="30" as="geometry" />
        </mxCell>
        <mxCell id="jCUedZAO6M8Hi1ttoSjH-21" style="edgeStyle=orthogonalEdgeStyle;rounded=0;orthogonalLoop=1;jettySize=auto;html=1;exitX=0.5;exitY=1;exitDx=0;exitDy=0;entryX=0.5;entryY=0;entryDx=0;entryDy=0;strokeWidth=2;" edge="1" parent="1" source="jCUedZAO6M8Hi1ttoSjH-15" target="jCUedZAO6M8Hi1ttoSjH-18">
          <mxGeometry relative="1" as="geometry" />
        </mxCell>
        <mxCell id="jCUedZAO6M8Hi1ttoSjH-15" value="" style="rounded=0;whiteSpace=wrap;html=1;strokeWidth=2;" vertex="1" parent="1">
          <mxGeometry x="200" y="369" width="120" height="50" as="geometry" />
        </mxCell>
        <mxCell id="jCUedZAO6M8Hi1ttoSjH-16" value="Login" style="text;strokeColor=none;align=center;fillColor=none;html=1;verticalAlign=middle;whiteSpace=wrap;rounded=0;fontSize=25;strokeWidth=2;" vertex="1" parent="1">
          <mxGeometry x="230" y="377" width="60" height="30" as="geometry" />
        </mxCell>
        <mxCell id="jCUedZAO6M8Hi1ttoSjH-26" style="edgeStyle=orthogonalEdgeStyle;rounded=0;orthogonalLoop=1;jettySize=auto;html=1;exitX=0.5;exitY=1;exitDx=0;exitDy=0;entryX=0;entryY=0.5;entryDx=0;entryDy=0;strokeWidth=2;" edge="1" parent="1" source="jCUedZAO6M8Hi1ttoSjH-18" target="jCUedZAO6M8Hi1ttoSjH-23">
          <mxGeometry relative="1" as="geometry" />
        </mxCell>
        <mxCell id="jCUedZAO6M8Hi1ttoSjH-18" value="" style="rounded=0;whiteSpace=wrap;html=1;strokeWidth=2;" vertex="1" parent="1">
          <mxGeometry x="95" y="500" width="170" height="50" as="geometry" />
        </mxCell>
        <mxCell id="jCUedZAO6M8Hi1ttoSjH-19" value="Edit Profile" style="text;strokeColor=none;align=center;fillColor=none;html=1;verticalAlign=middle;whiteSpace=wrap;rounded=0;fontSize=25;strokeWidth=2;" vertex="1" parent="1">
          <mxGeometry x="90" y="510" width="180" height="30" as="geometry" />
        </mxCell>
        <mxCell id="jCUedZAO6M8Hi1ttoSjH-27" style="edgeStyle=orthogonalEdgeStyle;rounded=0;orthogonalLoop=1;jettySize=auto;html=1;exitX=0.5;exitY=1;exitDx=0;exitDy=0;entryX=0;entryY=0.5;entryDx=0;entryDy=0;strokeWidth=2;" edge="1" parent="1" source="jCUedZAO6M8Hi1ttoSjH-22" target="jCUedZAO6M8Hi1ttoSjH-25">
          <mxGeometry relative="1" as="geometry" />
        </mxCell>
        <mxCell id="jCUedZAO6M8Hi1ttoSjH-22" value="" style="rounded=0;whiteSpace=wrap;html=1;strokeWidth=2;" vertex="1" parent="1">
          <mxGeometry x="240" y="579" width="170" height="50" as="geometry" />
        </mxCell>
        <mxCell id="jCUedZAO6M8Hi1ttoSjH-23" value="Home" style="text;strokeColor=none;align=center;fillColor=none;html=1;verticalAlign=middle;whiteSpace=wrap;rounded=0;fontSize=25;strokeWidth=2;" vertex="1" parent="1">
          <mxGeometry x="235" y="589" width="180" height="30" as="geometry" />
        </mxCell>
        <mxCell id="jCUedZAO6M8Hi1ttoSjH-24" value="" style="rounded=0;whiteSpace=wrap;html=1;strokeWidth=2;" vertex="1" parent="1">
          <mxGeometry x="359" y="649" width="170" height="50" as="geometry" />
        </mxCell>
        <mxCell id="jCUedZAO6M8Hi1ttoSjH-25" value="Create Post" style="text;strokeColor=none;align=center;fillColor=none;html=1;verticalAlign=middle;whiteSpace=wrap;rounded=0;fontSize=25;strokeWidth=2;" vertex="1" parent="1">
          <mxGeometry x="354" y="659" width="180" height="30" as="geometry" />
        </mxCell>
        <mxCell id="jCUedZAO6M8Hi1ttoSjH-40" style="edgeStyle=orthogonalEdgeStyle;rounded=0;orthogonalLoop=1;jettySize=auto;html=1;exitX=0;exitY=0.5;exitDx=0;exitDy=0;entryX=1;entryY=0.5;entryDx=0;entryDy=0;strokeWidth=2;" edge="1" parent="1" source="jCUedZAO6M8Hi1ttoSjH-28" target="jCUedZAO6M8Hi1ttoSjH-10">
          <mxGeometry relative="1" as="geometry" />
        </mxCell>
        <mxCell id="jCUedZAO6M8Hi1ttoSjH-41" style="edgeStyle=orthogonalEdgeStyle;rounded=0;orthogonalLoop=1;jettySize=auto;html=1;exitX=0;exitY=1;exitDx=0;exitDy=0;entryX=0.5;entryY=0;entryDx=0;entryDy=0;strokeWidth=2;" edge="1" parent="1" source="jCUedZAO6M8Hi1ttoSjH-28" target="jCUedZAO6M8Hi1ttoSjH-31">
          <mxGeometry relative="1" as="geometry" />
        </mxCell>
        <mxCell id="jCUedZAO6M8Hi1ttoSjH-42" style="edgeStyle=orthogonalEdgeStyle;rounded=0;orthogonalLoop=1;jettySize=auto;html=1;exitX=0.5;exitY=1;exitDx=0;exitDy=0;entryX=0.5;entryY=0;entryDx=0;entryDy=0;strokeWidth=2;" edge="1" parent="1" source="jCUedZAO6M8Hi1ttoSjH-28" target="jCUedZAO6M8Hi1ttoSjH-32">
          <mxGeometry relative="1" as="geometry" />
        </mxCell>
        <mxCell id="jCUedZAO6M8Hi1ttoSjH-28" value="" style="ellipse;whiteSpace=wrap;html=1;aspect=fixed;strokeWidth=2;" vertex="1" parent="1">
          <mxGeometry x="590" y="252" width="100" height="100" as="geometry" />
        </mxCell>
        <mxCell id="jCUedZAO6M8Hi1ttoSjH-38" style="edgeStyle=orthogonalEdgeStyle;rounded=0;orthogonalLoop=1;jettySize=auto;html=1;entryX=0.5;entryY=0;entryDx=0;entryDy=0;strokeWidth=2;" edge="1" parent="1" target="jCUedZAO6M8Hi1ttoSjH-37">
          <mxGeometry relative="1" as="geometry">
            <mxPoint x="690" y="302" as="sourcePoint" />
          </mxGeometry>
        </mxCell>
        <mxCell id="jCUedZAO6M8Hi1ttoSjH-30" value="CRUD" style="text;strokeColor=none;align=center;fillColor=none;html=1;verticalAlign=middle;whiteSpace=wrap;rounded=0;fontSize=25;strokeWidth=2;" vertex="1" parent="1">
          <mxGeometry x="610" y="287" width="60" height="30" as="geometry" />
        </mxCell>
        <mxCell id="jCUedZAO6M8Hi1ttoSjH-31" value="" style="rounded=0;whiteSpace=wrap;html=1;strokeWidth=2;" vertex="1" parent="1">
          <mxGeometry x="456" y="357" width="120" height="50" as="geometry" />
        </mxCell>
        <mxCell id="jCUedZAO6M8Hi1ttoSjH-32" value="" style="rounded=0;whiteSpace=wrap;html=1;strokeWidth=2;" vertex="1" parent="1">
          <mxGeometry x="560" y="430" width="120" height="50" as="geometry" />
        </mxCell>
        <mxCell id="jCUedZAO6M8Hi1ttoSjH-33" value="Students" style="text;strokeColor=none;align=center;fillColor=none;html=1;verticalAlign=middle;whiteSpace=wrap;rounded=0;fontSize=25;strokeWidth=2;" vertex="1" parent="1">
          <mxGeometry x="450" y="286" width="60" height="30" as="geometry" />
        </mxCell>
        <mxCell id="jCUedZAO6M8Hi1ttoSjH-34" value="Courses" style="text;strokeColor=none;align=center;fillColor=none;html=1;verticalAlign=middle;whiteSpace=wrap;rounded=0;fontSize=25;strokeWidth=2;" vertex="1" parent="1">
          <mxGeometry x="486" y="367" width="60" height="30" as="geometry" />
        </mxCell>
        <mxCell id="jCUedZAO6M8Hi1ttoSjH-35" value="Clubs" style="text;strokeColor=none;align=center;fillColor=none;html=1;verticalAlign=middle;whiteSpace=wrap;rounded=0;fontSize=25;strokeWidth=2;" vertex="1" parent="1">
          <mxGeometry x="591" y="440" width="60" height="30" as="geometry" />
        </mxCell>
        <mxCell id="jCUedZAO6M8Hi1ttoSjH-36" value="Posts" style="text;strokeColor=none;align=center;fillColor=none;html=1;verticalAlign=middle;whiteSpace=wrap;rounded=0;fontSize=25;strokeWidth=2;" vertex="1" parent="1">
          <mxGeometry x="724" y="382" width="60" height="30" as="geometry" />
        </mxCell>
      </root>
    </mxGraphModel>
  </diagram>
</mxfile>
